<?xml version="1.0" encoding="UTF-8"?>
<!DOCTYPE svg PUBLIC "-//W3C//DTD SVG 1.1//EN" "http://www.w3.org/Graphics/SVG/1.1/DTD/svg11.dtd">
<!-- Creator: CorelDRAW -->
<svg xmlns="http://www.w3.org/2000/svg" xml:space="preserve" width="52.294mm" height="10.4604mm" style="shape-rendering:geometricPrecision; text-rendering:geometricPrecision; image-rendering:optimizeQuality; fill-rule:evenodd; clip-rule:evenodd"
viewBox="0 0 10.1421 2.02873"
 xmlns:xlink="http://www.w3.org/1999/xlink">
 <defs>
  <style type="text/css">
   <![CDATA[
    .fil1 {fill:#3E619B}
    .fil0 {fill:#EF4B4C}
    .fil2 {fill:#3E619B;fill-rule:nonzero}
    .fil3 {fill:#EF4B4C;fill-rule:nonzero}
   ]]>
  </style>
 </defs>
 <g id="Слой_x0020_1">
  <metadata id="CorelCorpID_0Corel-Layer"/>
  <g id="_247221824">
   <path id="_247227608" class="fil0" d="M1.63363 1.8864l0.272278 -0.471594 0.272278 -0.471614 -0.544536 -0.943169 -0.544595 -1.93944e-005 -0.544517 1.93944e-005 -0.1422 0.246192 -0.306431 0.530805 1.93944e-005 0 -0.0959441 0.166171 0.238454 0.412984 0.246386 0c0.184344,0 0.183122,0.0165822 0.183122,-0.169235l0 -0.301098c0,-0.146428 -0.00257945,-0.137351 -0.149434,-0.137351l-0.0513176 0 0.056108 -0.0971853 0.198637 -0.343998 0.367117 -1.93944e-005 0.367175 1.93944e-005 0.367136 0.635884 -0.183568 0.317991 -0.183587 0.317932 -0.367136 1.93944e-005 -0.343766 -1.93944e-005 -0.37821 0 0.177401 0.307285 0.544556 1.93944e-005 0.544575 -1.93944e-005z"/>
   <path id="_247230320" class="fil1" d="M1.23187 1.08682l0.179359 0c0.0281995,0 0.0512788,0.0227302 0.0512788,0.050503l0 0.0252321c0,0.0277534 -0.0230793,0.0504642 -0.0512788,0.0504642l-0.191946 0c-0.0463526,0 -0.0491842,0.0298092 0.0010473,0.0298092l0.123019 0c0.0248442,0 0.0451889,0.0200538 0.0451889,0.0445295l0 0.0222454c0,0.0244757 -0.0203447,0.0445295 -0.0451889,0.0445295l-0.168751 0 -0.145264 0c-0.198754,0 -0.264132,0.0141191 -0.264132,-0.186147l0 -0.269543c0,-0.130253 -0.00603166,-0.0997454 0.095498,-0.152362 0.0557201,-0.0288589 0.100696,-0.0801376 0.129012,-0.166326 0.044898,-0.32505 0.200732,-0.00259885 0.110917,0.195049l0.126975 0 0.223249 0c0.0282188,0 0.0512594,0.0226914 0.0512594,0.0504642l0 0.0252321c0,0.0277728 -0.0230405,0.0504836 -0.0512594,0.0504836l-0.202206 0c-0.0433853,0 -0.0520933,0.0298286 -0.00523649,0.0298286l0.207442 0c0.0281995,0 0.0512594,0.0227108 0.0512594,0.0504642l0 0.0252515c0,0.0277534 -0.0230599,0.0504642 -0.0512594,0.0504642l-0.213746 0c-0.0466047,0 -0.0558559,0.0298286 -0.00523649,0.0298286z"/>
   <path id="_247235600" class="fil2" d="M2.36703 1.45291l0.178331 -1.13479 0.28533 0 -0.136187 0.865688 0.534975 0 -0.042144 0.269097 -0.820305 0zm2.37527 -0.36638c-0.00217217,-0.129671 0.0432301,-0.239366 0.136168,-0.329084 0.0929379,-0.0896991 0.204805,-0.133472 0.335581,-0.1313 0.118888,0 0.212621,0.0302553 0.281258,0.0907658 0.0686368,0.0605299 0.102945,0.142665 0.102945,0.246425 0,0.067027 -0.00702077,0.118345 -0.0210817,0.154011l-0.559296 0 0.00649712 0.0162137c0.0314771,0.0917937 0.134578,0.121583 0.222085,0.121583l0.23859 0 0.061422 0 -0.0848699 0.218555c-0.162971,0 -0.230502,0.0185798 -0.393144,-0.00938689 -0.0847535,-0.0145652 -0.154282,-0.0456738 -0.208626,-0.0932483 -0.0783728,-0.0686174 -0.11753,-0.163475 -0.11753,-0.284535zm0.28694 -0.121564l0.316109 0 0 -0.00973599c0,-0.0389052 -0.0115978,-0.069975 -0.0348323,-0.0932095 -0.0232539,-0.0232345 -0.0559528,-0.0348711 -0.0980969,-0.0348711 -0.0432301,0 -0.0810492,0.0119082 -0.113477,0.0356663 -0.0324274,0.0237775 -0.0556619,0.0578341 -0.0697035,0.10215zm-1.23455 0.487944l0.179941 -1.13479 0.278833 0 -0.098892 0.617653 0.0729617 0 0.225324 -0.288569 0.319387 0 -0.33721 0.395568 0.228582 0.410133 -0.31287 0 -0.145904 -0.303134 -0.0843074 0 -0.047012 0.303134 -0.278833 0zm-0.460113 0l0.128061 -0.805701 0.278833 0 -0.128042 0.805701 -0.278853 0z"/>
   <path id="_247235624" class="fil3" d="M3.53281 0.297432c0.027637,-0.0266091 0.0628572,-0.0399137 0.105602,-0.0399137 0.042784,0 0.0777133,0.0133046 0.104827,0.0399137 0.0271328,0.0265897 0.0406894,0.0612669 0.0406894,0.104032 0,0.0427646 -0.0135567,0.0774418 -0.0406894,0.104051 -0.0271134,0.0265897 -0.0620427,0.0398943 -0.104827,0.0398943 -0.0427452,0 -0.0779655,-0.0133046 -0.105602,-0.0398943 -0.027637,-0.0266091 -0.0414652,-0.0612863 -0.0414652,-0.104051 0,-0.0427646 0.0138282,-0.0774418 0.0414652,-0.104032z"/>
   <path id="_247235408" class="fil3" d="M8.40572 0.862818l0.0340566 -0.215607 0.139407 0 0.0324274 -0.207501 0.275594 0 -0.0324274 0.207501 0.207501 0 -0.0340372 0.215607 -0.207501 0 -0.0453829 0.278853c-0.00108609,0.00321947 -0.00162913,0.0102596 -0.00162913,0.0210623 0,0.0981744 0.215704,0.114505 0.259012,0.0711774l-0.0403985 0.228136c-0.000853353,0.00486799 -0.18157,0.0119469 -0.234827,0.0119469 -0.084288,0 -0.149686,-0.0207908 -0.196155,-0.0624112 -0.0464884,-0.041601 -0.0697035,-0.100773 -0.0697035,-0.177498 0,-0.0227108 0.00162913,-0.0454023 0.0048486,-0.0680937l0.0486411 -0.303173 -0.139426 0zm-2.33033 0.36477l0.0429198 0 0.0251351 0 0 -0.000504254c0.103508,-0.00451889 0.157289,-0.0378579 0.161284,-0.100017 0.00323886,-0.0281025 -0.00510073,-0.0505224 -0.0251157,-0.0672598 -0.0199956,-0.0167568 -0.0575626,-0.0316129 -0.112662,-0.0445877l-0.165376 -0.0372954c-0.185876,-0.0454023 -0.273422,-0.156164 -0.2626,-0.332323 0.00537225,-0.110238 0.0499794,-0.196446 0.133724,-0.258585 0.0837644,-0.0621396 0.199685,-0.0932095 0.347742,-0.0932095 0.0216248,-0.000620621 0.0431137,-0.000426677 0.064467,0.000562437l0.414051 0 -0.0848699 0.249102 -0.3715 0 -0.000659409 0 -0.0403209 0 -0.000620621 0c-0.116735,0 -0.175093,0.0345802 -0.175093,0.103741 0,0.0248636 0.0100075,0.0443162 0.0300031,0.0583577 0.0199956,0.0140609 0.0564571,0.0270164 0.109423,0.0389246l0.142646 0.0324274c0.202128,0.0453829 0.297762,0.159403 0.286959,0.342059 -0.00432495,0.113457 -0.0510654,0.201566 -0.140221,0.264229 -0.0774418,0.0544595 -0.181241,0.0852384 -0.311261,0.0923949l0 0.00079517 -0.0172998 0c-0.0141967,0.000562437 -0.0286843,0.000833959 -0.0435016,0.000833959 -0.0225751,0.000640015 -0.0451308,0.000349099 -0.0676477,-0.000833959l-0.384649 0 0.0848699 -0.248811 0.360173 0zm1.10926 -0.60144c0.125365,0 0.226682,0.0353948 0.303968,0.106184 0.0772673,0.0707895 0.115901,0.16237 0.115901,0.27478 0.00215278,0.130776 -0.0453829,0.241829 -0.142665,0.333138 -0.0972629,0.0913282 -0.214541,0.135916 -0.351776,0.133744 -0.125385,0 -0.226701,-0.0359378 -0.303968,-0.107794 -0.0772673,-0.0718756 -0.11592,-0.164018 -0.11592,-0.276409 -0.00215278,-0.12969 0.0453829,-0.239947 0.142665,-0.330713 0.0972629,-0.0907852 0.214541,-0.135101 0.351795,-0.132929zm-0.05188 0.606288c0.0551189,0 0.101316,-0.0188901 0.138612,-0.0567092 0.037276,-0.0378385 0.055914,-0.0859366 0.055914,-0.144294 0,-0.0497272 -0.0151276,-0.0896991 -0.0453829,-0.119954 -0.0302553,-0.0302747 -0.0702659,-0.0454023 -0.119954,-0.0454023 -0.0551383,0 -0.101316,0.018638 -0.138631,0.0559334 -0.037276,0.037276 -0.055914,0.0851026 -0.055914,0.14346 0,0.0507939 0.0148561,0.0913282 0.0445877,0.121583 0.0297122,0.0302553 0.069975,0.0453829 0.120769,0.0453829zm0.536643 -0.369618l0.0299837 -0.215607 0.136187 0 0.00283158 -0.0210623c0.0142355,-0.105913 0.0542849,-0.188863 0.120168,-0.248849 0.0658828,-0.0599869 0.151237,-0.0899706 0.256064,-0.0899706 0.0101433,0 0.0201702,0.00031031 0.0301195,0.000892142l0 -0.000446071 0.246289 0 -0.0848893 0.221639 -0.0228078 0 -0.138592 0c-0.0745714,0 -0.117084,0.0389246 -0.127499,0.116735l-0.00285098 0.0210623 0.207501 0 -0.0300031 0.215607 -0.207501 0 -0.0829304 0.590094 -0.277223 0 0.0813207 -0.590094 -0.136168 0z"/>
   <path id="_247216688" class="fil2" d="M9.63649 0.742398l0.0174356 -0.10857 0.341555 -0.3273 0.127596 0 -0.0515115 0.330461 0.0705374 0 -0.0348711 0.105409 -0.0523067 0 -0.0190065 0.118868 -0.129167 0 0.0182113 -0.118868 -0.288472 0zm-0.487556 0.125074l0.0201314 -0.126665 0.231414 -0.153739c0.0301195,-0.0206162 0.0515115,-0.0389633 0.0641954,-0.0550801 0.0126839,-0.0161167 0.0190259,-0.0342117 0.0190259,-0.0542849 0,-0.0174356 -0.00583771,-0.031031 -0.0174356,-0.0408252 -0.0116172,-0.00977478 -0.028277,-0.0146428 -0.0499406,-0.0146428 -0.0280055,0 -0.0551964,0.00395646 -0.0816116,0.0118694 -0.0253679,0.00793231 -0.0478072,0.0166598 -0.0673761,0.026163 -0.0190259,0.00952265 -0.0285098,0.0147785 -0.0285098,0.0158452l-0.0190259 -0.121234c0,-0.00159034 0.0110936,-0.00740866 0.0332808,-0.0174356 0.0591723,-0.0280249 0.124144,-0.0420277 0.194952,-0.0420277 0.0596959,0 0.105525,0.0140028 0.137487,0.0420277 0.031962,0.0280055 0.0479429,0.0654949 0.0479429,0.112526 0,0.0459453 -0.0121603,0.0857038 -0.0364421,0.119276 -0.0243012,0.0335329 -0.0628766,0.0669495 -0.115707,0.10023l-0.111751 0.0713326 0.22032 0 -0.0190259 0.120459 -0.421925 0.00620621zm0.657955 -0.233644l0.135509 0 0.0237775 -0.152168 -0.159286 0.152168z"/>
   <path id="_247220576" class="fil1" d="M2.36008 1.97276c0.00711774,0.00209459 0.0167762,0.0024243 0.022769,0.0024243 0.0256006,0 0.0471672,-0.00812625 0.0613251,-0.0305074 0.0185604,-0.0293049 0.0238745,-0.0822516 0.0259109,-0.116172l0.00581832 -0.0875075 0.0968362 0 -0.000833959 0.228233 0.055274 0 0.00110548 -0.275885 -0.202187 0 -0.00917355 0.136498c-0.00145458,0.0218963 -0.00440253,0.0560498 -0.0143906,0.0758127 -0.00785473,0.0155349 -0.0205387,0.0252515 -0.0380324,0.0252515 -0.00192005,0 -0.00389827,-0.000155155 -0.0058765,-0.000426677l0.00145458 0.0422798zm0.500434 -0.00352978l0.0586487 0 0.143674 -0.208451 -0.000349099 0.208451 0.0535479 0 0.000717593 -0.275885 -0.058668 0 -0.143751 0.208567 0.000853353 -0.208567 -0.0539746 0 -0.000698198 0.275885zm0.488448 0l0.226856 0 -0.000601226 0.059502 0.0482533 0 0.000426677 -0.107173 -0.0400688 0 0.00128003 -0.228214 -0.055274 0 -0.00129942 0.228214 -0.124027 0 0.000853353 -0.228214 -0.0552934 0 -0.00110548 0.275885zm0.481873 0l0.203214 0 -0.000193944 -0.0434047 -0.14765 0 0.00031031 -0.0751727 0.127091 0 7.75776e-005 -0.0434047 -0.127208 0 0.000775776 -0.0704986 0.143131 0 7.75776e-005 -0.0434047 -0.198909 0 -0.000717593 0.275885zm0.421828 0l0.0552934 0 0.000271522 -0.116444 0.139717 0 -0.000271522 0.116444 0.0552934 0 0.000678804 -0.275885 -0.0552546 0 -0.000155155 0.11177 -0.139717 0 0.000135761 -0.11177 -0.055274 0 -0.000717593 0.275885zm0.475221 -0.0164658c0.00296734,0.00155155 0.00636136,0.0031031 0.00847535,0.00411161 0.0132852,0.00636136 0.0299643,0.0106863 0.0442386,0.0141385 0.0194138,0.00469344 0.0393124,0.00682683 0.0594438,0.00630318 0.0305074,0 0.0705956,-0.00389827 0.0952653,-0.0243206 0.0198405,-0.0164658 0.0251545,-0.0378966 0.0211787,-0.0630124 -0.00426677,-0.026997 -0.019375,-0.0435792 -0.0447623,-0.0522873l-0.0276758 -0.00948386 0.0272685 -0.0108027c0.0119082,-0.00473223 0.0211399,-0.0122767 0.0269388,-0.0239133 0.00626439,-0.0125288 0.00705956,-0.0262794 0.00488739,-0.0399331 -0.0034716,-0.0220126 -0.0160392,-0.0376251 -0.0346578,-0.049029 -0.0251739,-0.0154185 -0.0583965,-0.019278 -0.0874687,-0.019278 -0.0183859,-0.000523649 -0.0367136,0.0013964 -0.0545758,0.00585711 -0.0125676,0.00314189 -0.0278504,0.00723411 -0.0394482,0.0131688 -0.00153216,0.00079517 -0.00368494,0.00182307 -0.00576014,0.00292855l0.013673 0.0440835c0.0107251,-0.00649712 0.0244175,-0.011113 0.0362869,-0.0147203 0.016621,-0.00504254 0.0336105,-0.00721472 0.0507357,-0.00661349 0.0143519,0 0.0301583,0.0017261 0.0430943,0.00839777 0.0112681,0.00583771 0.0196077,0.0149143 0.0216441,0.0278504 0.0051783,0.0325826 -0.0220126,0.0422992 -0.0489515,0.0422992l-0.0518024 0 0.00215278 0.0404567 0.0578341 0c0.0231569,0 0.0484278,0.00669107 0.0526364,0.0332614 0.0024243,0.0154573 -0.00314189,0.0286261 -0.0157289,0.0377221 -0.0138864,0.0101045 -0.0336299,0.0122379 -0.0500375,0.0122379 -0.018095,0.000620621 -0.0359184,-0.00184247 -0.0533346,-0.00676864 -0.0134985,-0.0038207 -0.0284128,-0.00849475 -0.040864,-0.0150501 -0.000426677,-0.000232733 -0.000872748,-0.000465465 -0.00135761,-0.000698198l-0.0093287 0.0430943zm0.441552 0.0164658l0.0586487 0 0.143674 -0.208451 -0.000349099 0.208451 0.0535479 0 0.000698198 -0.275885 -0.0586293 0 -0.143771 0.208567 0.000833959 -0.208567 -0.0539358 0 -0.000717593 0.275885zm0.472758 -0.121913c0.00601226,0.0379742 0.0237581,0.0687725 0.0529661,0.0931319 0.0301389,0.0251157 0.0649324,0.0368687 0.10409,0.0368687 0.028374,0.000504254 0.0551964,-0.00608984 0.0794782,-0.0211399 0.0234672,-0.0145846 0.0407282,-0.0344832 0.0518994,-0.0599675 0.0115009,-0.0262406 0.0140028,-0.0536061 0.008999,-0.081825 -0.00597347,-0.0377415 -0.0235254,-0.0684816 -0.0526752,-0.0926664 -0.0300807,-0.02498 -0.0648936,-0.0364615 -0.103799,-0.0364615 -0.0284904,-0.000504254 -0.0555262,0.00603166 -0.0799243,0.0211399 -0.0233896,0.014507 -0.0407088,0.0342505 -0.0519964,0.0595796 -0.0115591,0.0260661 -0.0140028,0.0532376 -0.00903779,0.0813401zm0.153351 0.0801958c-0.0237193,0 -0.0450338,-0.00735048 -0.0630318,-0.0229824 -0.0182113,-0.0158258 -0.0285679,-0.0364809 -0.0323499,-0.0604523 -0.00442192,-0.0278504 0,-0.0546728 0.0176489,-0.0770927 0.017455,-0.0221484 0.0413489,-0.0319232 0.069044,-0.0319232 0.0235448,0 0.0446459,0.00740866 0.0624306,0.0230211 0.0179204,0.0157095 0.0286261,0.0358021 0.0323886,0.0595602 0.00442192,0.0278697 5.81832e-005,0.0547504 -0.0172998,0.077403 -0.0172028,0.0224587 -0.0410385,0.0324662 -0.0688307,0.0324662zm0.360755 0.0417173l0.055274 0 0.000290916 -0.116444 0.139717 0 -0.000271522 0.116444 0.0552934 0 0.000678804 -0.275885 -0.0552546 0 -0.000135761 0.11177 -0.139737 0 0.000135761 -0.11177 -0.0552934 0 -0.000698198 0.275885zm0.483211 0l0.055274 0 0.000290916 -0.116444 0.139717 0 -0.000271522 0.116444 0.055274 0 0.000698198 -0.275885 -0.055274 0 -0.000135761 0.11177 -0.139717 0 0.000135761 -0.11177 -0.0552934 0 -0.000698198 0.275885zm0.60848 -0.283973c-0.0285292,-0.000504254 -0.0555068,0.00601226 -0.0799049,0.0211399 -0.0233896,0.014507 -0.0407476,0.0342505 -0.0519964,0.0595796 -0.0115785,0.0260661 -0.0140221,0.0532958 -0.00905718,0.0813401 0.00601226,0.037916 0.0237581,0.0687725 0.0529661,0.0931319 0.0301389,0.0251157 0.0649324,0.0368687 0.10409,0.0368687 0.0283546,0.000504254 0.0551964,-0.00608984 0.0794588,-0.0211399 0.0234866,-0.0145652 0.0407476,-0.0344832 0.0519188,-0.0599675 0.0115009,-0.0262406 0.0140028,-0.0536061 0.00901839,-0.081825 -0.00599287,-0.0377415 -0.0235448,-0.0684816 -0.0526752,-0.0926664 -0.0301001,-0.02498 -0.0648549,-0.0364615 -0.103818,-0.0364615zm0.012393 0.242255c-0.0237193,0 -0.0450338,-0.00735048 -0.0630318,-0.0229824 -0.0181919,-0.0158258 -0.0285679,-0.0364809 -0.0323499,-0.0604523 -0.00442192,-0.0278891 -1.93944e-005,-0.0546534 0.0176489,-0.0770927 0.017455,-0.0221484 0.0413682,-0.0319232 0.069044,-0.0319232 0.0235254,0 0.0446459,0.00740866 0.0624112,0.0230211 0.0179398,0.0157095 0.0286455,0.0358021 0.032408,0.0595602 0.00442192,0.0278697 5.81832e-005,0.0547504 -0.0172998,0.077403 -0.0172222,0.0224781 -0.0410385,0.0324662 -0.0688307,0.0324662zm0.360775 0.0417173l0.203195 0 -0.000193944 -0.0434047 -0.14765 0 0.00031031 -0.0751727 0.127072 0 9.6972e-005 -0.0434047 -0.127188 0 0.000756381 -0.0704986 0.143111 0 9.6972e-005 -0.0434047 -0.198928 0 -0.000678804 0.275885zm0.608111 0l0.0552934 0 0.000853353 -0.228233 0.134907 0 -0.000407282 0.228233 0.0552934 0 0.000678804 -0.275885 -0.245902 0 -0.000717593 0.275885zm0.604135 -0.283973c-0.0285292,-0.000504254 -0.0555262,0.00601226 -0.0799049,0.0211399 -0.023409,0.014507 -0.0407476,0.0342505 -0.0519964,0.0595796 -0.0115785,0.0260661 -0.0140221,0.0532958 -0.00905718,0.0813401 0.00601226,0.0379354 0.0237581,0.0687725 0.0529661,0.0931319 0.0301389,0.0251157 0.0649324,0.0368687 0.10409,0.0368687 0.0283546,0.000504254 0.0551964,-0.00608984 0.0794588,-0.0211399 0.0234866,-0.0145846 0.0407476,-0.0344832 0.0519188,-0.0599675 0.0115009,-0.0262406 0.0140028,-0.0536061 0.008999,-0.081825 -0.00597347,-0.0377415 -0.0235254,-0.068501 -0.0526752,-0.0926664 -0.0300807,-0.02498 -0.0648549,-0.0364615 -0.103799,-0.0364615zm0.012393 0.242255c-0.0237193,0 -0.0450532,-0.00735048 -0.0630318,-0.0229824 -0.0181919,-0.0158258 -0.0285679,-0.0364809 -0.0323499,-0.0604523 -0.00444132,-0.0278891 0,-0.0546534 0.0176489,-0.0770927 0.0174356,-0.0221484 0.0413682,-0.0319232 0.069044,-0.0319232 0.0235448,0 0.0446265,0.00740866 0.0624112,0.0230211 0.0179398,0.0157095 0.0286455,0.0358021 0.032408,0.0595602 0.00440253,0.0278697 5.81832e-005,0.0547504 -0.0172998,0.077403 -0.0172028,0.0224781 -0.0410579,0.0324662 -0.0688307,0.0324662z"/>
  </g>
 </g>
</svg>
